HIERARCHY
ROOT Hips
{
	OFFSET 0.000000 89.005402 0.000000
	CHANNELS 6 Xposition Yposition Zposition Xrotation Yrotation Zrotation
	JOINT Spine
	{
		OFFSET 0.116900 10.681000 0.373400
		CHANNELS 3 Xrotation Yrotation Zrotation
		JOINT Spine1
		{
			OFFSET 0.000000 13.840401 0.053500
			CHANNELS 3 Xrotation Yrotation Zrotation
			JOINT Spine2
			{
				OFFSET 0.000000 14.712700 -0.366200
				CHANNELS 3 Xrotation Yrotation Zrotation
				JOINT Neck
				{
					OFFSET 0.000000 35.415497 -3.314200
					CHANNELS 3 Xrotation Yrotation Zrotation
					JOINT Head
					{
						OFFSET 0.000000 16.899200 1.218300
						CHANNELS 3 Xrotation Yrotation Zrotation
						JOINT HeadTop_End
						{
							OFFSET 0.000000 22.206207 2.192500
							CHANNELS 3 Xrotation Yrotation Zrotation
							End Site
							{
								OFFSET 0.000000 22.314178 0.000000
							}
						}
					}
				}
				JOINT LeftShoulder
				{
					OFFSET 12.896400 26.716293 -4.548400
					CHANNELS 3 Xrotation Yrotation Zrotation
					JOINT LeftArm
					{
						OFFSET 19.027000 -4.857010 -1.718400
						CHANNELS 3 Xrotation Yrotation Zrotation
						JOINT LeftForeArm
						{
							OFFSET 24.179897 0.000000 0.000000
							CHANNELS 3 Xrotation Yrotation Zrotation
							JOINT LeftHand
							{
								OFFSET 27.156403 0.000000 0.000000
								CHANNELS 3 Xrotation Yrotation Zrotation
								JOINT LeftHandIndex1
								{
									OFFSET 16.441200 0.000000 0.000000
									CHANNELS 3 Xrotation Yrotation Zrotation
									JOINT LeftHandIndex2
									{
										OFFSET 4.821899 0.000000 0.000000
										CHANNELS 3 Xrotation Yrotation Zrotation
										JOINT LeftHandIndex3
										{
											OFFSET 6.386497 0.000000 0.000000
											CHANNELS 3 Xrotation Yrotation Zrotation
											JOINT LeftHandIndex4
											{
												OFFSET 5.188988 0.000000 0.000000
												CHANNELS 3 Xrotation Yrotation Zrotation
												End Site
												{
													OFFSET -0.178703 5.185913 0.000177
												}
											}
										}
									}
								}
								JOINT LeftHandThumb1
								{
									OFFSET 6.534897 -5.032593 5.900300
									CHANNELS 3 Xrotation Yrotation Zrotation
									JOINT LeftHandThumb2
									{
										OFFSET 3.818176 -2.204422 2.204423
										CHANNELS 3 Xrotation Yrotation Zrotation
										JOINT LeftHandThumb3
										{
											OFFSET 3.252098 -1.877594 1.877601
											CHANNELS 3 Xrotation Yrotation Zrotation
											JOINT LeftHandThumb4
											{
												OFFSET 5.251778 -3.032120 3.032117
												CHANNELS 3 Xrotation Yrotation Zrotation
												End Site
												{
													OFFSET 0.000023 6.780014 0.000000
												}
											}
										}
									}
								}
							}
						}
					}
				}
				JOINT RightShoulder
				{
					OFFSET -12.896300 26.716293 -4.548400
					CHANNELS 3 Xrotation Yrotation Zrotation
					JOINT RightArm
					{
						OFFSET -19.027000 -4.857010 -1.718400
						CHANNELS 3 Xrotation Yrotation Zrotation
						JOINT RightForeArm
						{
							OFFSET -24.179897 0.000000 0.000000
							CHANNELS 3 Xrotation Yrotation Zrotation
							JOINT RightHand
							{
								OFFSET -27.156403 0.000000 0.000000
								CHANNELS 3 Xrotation Yrotation Zrotation
								JOINT RightHandThumb1
								{
									OFFSET -6.591202 -4.852203 5.988100
									CHANNELS 3 Xrotation Yrotation Zrotation
									JOINT RightHandThumb2
									{
										OFFSET -3.818176 -2.204422 2.204423
										CHANNELS 3 Xrotation Yrotation Zrotation
										JOINT RightHandThumb3
										{
											OFFSET -3.252098 -1.877594 1.877601
											CHANNELS 3 Xrotation Yrotation Zrotation
											JOINT RightHandThumb4
											{
												OFFSET -5.251778 -3.032120 3.032117
												CHANNELS 3 Xrotation Yrotation Zrotation
												End Site
												{
													OFFSET -0.000023 6.780014 0.000000
												}
											}
										}
									}
								}
								JOINT RightHandIndex1
								{
									OFFSET -16.029404 0.000000 0.000000
									CHANNELS 3 Xrotation Yrotation Zrotation
									JOINT RightHandIndex2
									{
										OFFSET -5.213303 0.000000 0.000000
										CHANNELS 3 Xrotation Yrotation Zrotation
										JOINT RightHandIndex3
										{
											OFFSET -6.386528 0.000000 0.000000
											CHANNELS 3 Xrotation Yrotation Zrotation
											JOINT RightHandIndex4
											{
												OFFSET -5.189026 0.000000 0.000000
												CHANNELS 3 Xrotation Yrotation Zrotation
												End Site
												{
													OFFSET 0.236702 5.183624 0.001972
												}
											}
										}
									}
								}
							}
						}
					}
				}
			}
		}
	}
	JOINT LeftUpLeg
	{
		OFFSET 14.073000 -7.904099 -1.463000
		CHANNELS 3 Xrotation Yrotation Zrotation
		JOINT LeftLeg
		{
			OFFSET -0.109806 -34.073280 4.093200
			CHANNELS 3 Xrotation Yrotation Zrotation
			JOINT LeftFoot
			{
				OFFSET 0.109806 -29.899420 -6.319000
				CHANNELS 3 Xrotation Yrotation Zrotation
				JOINT LeftToeBase
				{
					OFFSET 1.551100 -14.988700 20.535801
					CHANNELS 3 Xrotation Yrotation Zrotation
					JOINT LeftToe_End
					{
						OFFSET 0.221200 0.570800 13.248301
						CHANNELS 3 Xrotation Yrotation Zrotation
						End Site
						{
							OFFSET 0.000000 13.262435 0.000000
						}
					}
				}
			}
		}
	}
	JOINT RightUpLeg
	{
		OFFSET -13.839300 -7.904099 -1.463000
		CHANNELS 3 Xrotation Yrotation Zrotation
		JOINT RightLeg
		{
			OFFSET 0.109694 -34.073219 4.093300
			CHANNELS 3 Xrotation Yrotation Zrotation
			JOINT RightFoot
			{
				OFFSET -0.109694 -29.899384 -6.319200
				CHANNELS 3 Xrotation Yrotation Zrotation
				JOINT RightToeBase
				{
					OFFSET -1.551100 -14.988700 20.535801
					CHANNELS 3 Xrotation Yrotation Zrotation
					JOINT RightToe_End
					{
						OFFSET -0.221200 0.570900 13.248299
						CHANNELS 3 Xrotation Yrotation Zrotation
						End Site
						{
							OFFSET 0.000000 13.262440 0.000000
						}
					}
				}
			}
		}
	}
}
MOTION
Frames: 4
Frame Time: 0.033333
2.088495 75.510612 -7.109356 1.323260 -78.824741 5.773982 12.344191 -2.179212 0.654291 1.667875 -0.428364 -1.216583 1.659079 -0.468024 -1.210271 21.241289 1.463350 -17.302575 -17.460306 29.215694 1.129078 -0.000000 -0.000001 0.000001 -0.020932 3.503474 0.342465 -13.785413 -42.745291 -76.186990 -0.000122 -75.092999 -0.000126 20.270533 -21.533213 55.608231 6.360627 8.827175 -47.484940 0.937624 3.473902 -30.200463 1.143368 3.804796 -33.441026 -0.000000 0.000005 -0.000000 39.198080 -24.603847 -12.103223 3.851679 33.576462 13.979568 -6.956163 30.885245 2.585797 -0.000000 -0.000002 -0.000001 4.214663 18.294052 -2.145732 4.107444 23.807575 30.800817 0.000017 129.698271 -0.000021 10.279068 22.660339 -64.994502 28.980315 2.192880 7.868401 14.052621 -12.644034 -2.215580 9.616684 -27.238634 -10.258534 -0.000002 0.000000 -0.000001 8.287577 -9.666570 53.050496 1.991604 -4.875376 44.420480 0.567599 -2.756254 23.268475 0.000003 0.000001 0.000002 -25.397737 5.994774 25.397049 27.676881 -0.323874 4.977523 1.700599 1.985039 -29.665629 -0.330948 -0.000012 0.000003 -0.000000 -0.000002 -0.000000 -30.235229 -4.916216 -22.324055 57.894138 4.843571 -1.874049 -27.909925 -4.357383 11.897985 -1.132131 0.000021 0.000004 0.000000 0.000000 0.000000 
2.058834 75.435593 -7.098102 1.089434 -80.223420 5.541794 12.390472 -2.939332 0.936347 1.651611 -0.598272 -0.983343 1.641523 -0.631233 -0.974580 21.522797 1.883689 -16.483193 -17.048593 30.850537 0.770679 0.000002 0.000003 -0.000001 -0.020922 3.503478 0.342464 -14.894944 -43.055675 -76.972127 -0.000085 -74.459983 -0.000092 20.196376 -21.914438 54.214224 6.360629 8.827176 -47.484937 0.937621 3.473903 -30.200463 1.143372 3.804796 -33.441026 -0.000001 -0.000003 0.000001 39.198083 -24.603846 -12.103220 3.851684 33.576462 13.979574 -6.956166 30.885245 2.585799 -0.000001 -0.000000 0.000001 4.061577 17.256616 -2.635982 4.549473 24.252550 30.764156 0.000030 129.541299 -0.000054 10.729407 22.358494 -66.527006 28.980312 2.192881 7.868404 14.052622 -12.644033 -2.215581 9.616679 -27.238636 -10.258530 0.000003 0.000002 -0.000000 8.287575 -9.666572 53.050496 1.991608 -4.875375 44.420484 0.567596 -2.756255 23.268477 -0.000001 0.000001 -0.000003 -24.831974 6.349323 25.918152 28.437274 0.378539 4.909407 1.131501 2.157348 -30.061613 -0.563126 -0.000007 0.000048 -0.000000 0.000002 0.000000 -30.785780 -4.662380 -21.981195 58.195056 5.658689 -2.108463 -27.769538 -4.171022 11.408606 -1.091362 0.000013 -0.000002 0.000000 -0.000000 0.000000 
2.014768 75.462013 -6.968141 1.136864 -81.609286 5.529335 12.321626 -3.687043 1.218853 1.646148 -0.765518 -0.752455 1.635560 -0.791752 -0.741699 21.852529 2.264215 -15.779110 -16.518266 32.469514 0.294738 -0.000000 -0.000001 0.000001 -0.020930 3.503490 0.342459 -15.810980 -43.315079 -77.577774 0.000036 -74.045036 0.000026 20.025288 -22.026781 52.715735 6.360626 8.827176 -47.484937 0.937619 3.473901 -30.200467 1.143371 3.804797 -33.441026 -0.000000 -0.000002 0.000001 39.198083 -24.603846 -12.103223 3.851682 33.576462 13.979569 -6.956164 30.885238 2.585793 0.000003 -0.000001 0.000002 3.920815 16.479314 -2.901910 4.870116 24.373066 30.722372 0.000002 129.486726 -0.000007 10.856414 22.024189 -67.815548 28.980315 2.192880 7.868404 14.052619 -12.644035 -2.215577 9.616685 -27.238634 -10.258533 -0.000000 0.000000 0.000002 8.287577 -9.666574 53.050499 1.991608 -4.875375 44.420480 0.567586 -2.756251 23.268479 -0.000002 -0.000001 -0.000001 -24.181943 6.694332 26.339986 29.033420 1.176949 4.831503 0.604015 2.320360 -30.388642 -0.873296 -0.000007 0.000135 0.000000 0.000002 0.000000 -31.206929 -4.484477 -21.666596 58.104911 6.597169 -2.289982 -27.411144 -4.029932 10.944026 -1.018585 0.000008 -0.000008 0.000000 -0.000000 -0.000000 
1.962118 75.596695 -6.712979 1.786612 -82.929937 6.060121 12.129258 -4.381781 1.491125 1.653435 -0.921074 -0.521565 1.643392 -0.940666 -0.509559 22.178838 2.607917 -15.179942 -15.831935 34.034658 -0.354463 0.000001 0.000002 -0.000000 -0.020929 3.503483 0.342463 -16.621299 -43.543317 -78.036878 -0.000064 -73.806191 -0.000077 19.796096 -21.890787 51.175264 6.360628 8.827173 -47.484937 0.937619 3.473902 -30.200470 1.143374 3.804803 -33.441023 0.000000 0.000003 -0.000001 39.198083 -24.603849 -12.103218 3.851678 33.576462 13.979575 -6.956169 30.885241 2.585796 0.000001 -0.000000 -0.000001 3.803252 15.901085 -3.025097 5.036759 24.228020 30.688788 -0.000006 129.491699 -0.000004 10.711528 21.744863 -68.907921 28.980315 2.192882 7.868404 14.052622 -12.644031 -2.215580 9.616684 -27.238630 -10.258533 0.000003 0.000002 -0.000001 8.287577 -9.666575 53.050496 1.991607 -4.875375 44.420477 0.567593 -2.756253 23.268481 -0.000002 -0.000001 -0.000002 -23.489572 6.987681 26.615722 29.472471 2.102589 4.742037 0.123452 2.468412 -30.620438 -1.180540 -0.000073 0.007253 0.000000 -0.000002 -0.000000 -31.503438 -4.362312 -21.446145 57.624332 7.633378 -2.416917 -26.842546 -3.951194 10.709793 -0.925364 0.000029 0.000004 0.000000 0.000000 0.000000 
